<?xml version="1.0" standalone="no"?>
<!DOCTYPE svg PUBLIC "-//W3C//DTD SVG 20010904//EN"
 "http://www.w3.org/TR/2001/REC-SVG-20010904/DTD/svg10.dtd">
<svg version="1.0" xmlns="http://www.w3.org/2000/svg"
 width="400.000000pt" height="400.000000pt" viewBox="0 0 400.000000 400.000000"
 preserveAspectRatio="xMidYMid meet">
<metadata>
Created by potrace 1.14, written by Peter Selinger 2001-2017
</metadata>
<g transform="translate(0.000000,400.000000) scale(0.100000,-0.100000)"
fill="#000000" stroke="none">
<path d="M3240 3452 c-62 -6 -120 -66 -120 -125 0 -23 -8 -27 -82 -47 -46 -12
-113 -30 -151 -40 l-67 -19 -16 24 c-8 13 -30 30 -49 39 -151 72 -274 -129
-143 -233 37 -30 113 -33 153 -7 33 22 65 74 65 106 0 25 7 28 148 66 l147 40
30 -32 c95 -100 246 -30 233 108 -8 79 -68 128 -148 120z"/>
<path d="M3549 3229 c-38 -19 -68 -63 -71 -104 -3 -33 -7 -35 -162 -75 -65
-18 -124 -34 -130 -36 -7 -3 -18 6 -25 19 -31 58 -128 76 -188 35 -30 -21 -63
-79 -63 -113 0 -8 -16 -19 -37 -25 -21 -5 -87 -23 -146 -40 l-108 -29 -35 34
c-39 39 -70 50 -119 42 -96 -16 -146 -128 -92 -208 76 -114 230 -74 251 66 2
17 16 24 76 40 8 2 61 16 117 31 l103 27 25 -27 c82 -89 206 -57 238 62 9 33
17 44 37 49 14 3 79 20 144 38 l120 33 19 -24 c26 -34 69 -54 114 -54 129 2
179 174 73 252 -35 26 -99 29 -141 7z"/>
<path d="M3349 2871 c-40 -19 -79 -74 -79 -111 0 -26 -5 -28 -97 -54 -54 -15
-105 -29 -114 -31 -9 -2 -33 -8 -53 -13 -31 -9 -38 -8 -50 10 -40 57 -123 75
-183 38 -34 -20 -63 -66 -63 -98 0 -24 -16 -38 -55 -47 -17 -4 -78 -21 -138
-37 l-107 -29 -26 30 c-44 52 -127 64 -182 25 -35 -24 -60 -83 -55 -129 16
-152 223 -166 266 -18 l14 46 113 33 c172 49 172 49 203 15 47 -54 138 -60
189 -14 27 24 48 67 48 96 0 19 7 26 33 32 17 4 39 9 47 11 8 2 61 17 116 32
l102 29 25 -32 c47 -58 142 -62 199 -8 31 30 47 85 37 133 -8 38 -67 99 -96
101 -10 0 -28 2 -39 3 -12 1 -37 -5 -55 -13z"/>
<path d="M3120 2494 c-35 -30 -59 -71 -55 -97 4 -22 -10 -28 -115 -56 -47 -13
-107 -29 -134 -38 l-49 -14 -23 29 c-70 89 -207 57 -237 -55 -13 -49 -10 -47
-181 -93 l-120 -33 -22 26 c-83 97 -230 54 -242 -71 -6 -63 21 -112 75 -137
83 -40 192 21 193 107 0 30 -1 30 183 78 l117 31 25 -30 c62 -73 179 -61 222
23 9 17 17 42 18 56 1 23 10 27 151 66 l149 41 18 -28 c44 -67 157 -69 214 -3
49 58 33 164 -32 204 -48 30 -115 27 -155 -6z"/>
<path d="M1114 2264 c-50 -17 -82 -54 -90 -104 -6 -37 -10 -41 -48 -51 -22 -5
-55 -15 -72 -20 -17 -5 -40 -11 -51 -13 -11 -2 -44 -11 -73 -20 -68 -20 -65
-20 -77 7 -14 29 -70 57 -115 57 -99 0 -163 -121 -112 -210 37 -62 130 -85
189 -46 33 22 65 74 65 106 0 24 7 27 150 66 l149 40 21 -28 c42 -57 128 -67
187 -23 122 94 22 289 -123 239z"/>
<path d="M2923 2140 c-36 -21 -63 -66 -63 -104 0 -27 5 -25 -203 -81 l-97 -26
-25 30 c-61 71 -178 62 -219 -18 -8 -15 -17 -41 -20 -56 -3 -15 -6 -28 -8 -29
-3 -2 -115 -33 -231 -64 l-59 -15 -23 26 c-50 59 -131 67 -192 21 -28 -22 -53
-72 -53 -110 0 -6 -19 -16 -42 -23 -24 -6 -90 -24 -147 -39 l-104 -29 -29 32
c-74 85 -216 46 -234 -65 -6 -37 -8 -39 -66 -55 -33 -9 -67 -18 -76 -20 -9 -2
-48 -13 -87 -24 l-69 -19 -29 29 c-91 96 -237 41 -239 -91 -1 -104 121 -172
208 -116 31 21 64 74 64 103 0 23 9 32 37 38 47 10 243 64 251 69 6 3 17 -6
27 -20 26 -40 91 -65 140 -54 51 11 105 68 105 109 0 17 5 33 10 36 6 4 74 24
152 45 131 36 142 38 154 22 8 -9 14 -20 14 -23 0 -14 70 -39 108 -39 29 0 49
7 73 27 32 27 64 87 54 102 -9 16 19 28 158 64 l139 37 19 -24 c76 -97 223
-57 248 67 7 32 8 32 151 71 l143 39 21 -24 c85 -97 232 -55 244 69 8 87 -49
152 -133 152 -22 0 -54 -9 -72 -20z"/>
<path d="M1460 2054 c-41 -16 -80 -68 -83 -110 -2 -29 -20 -39 -102 -59 -21
-5 -51 -13 -144 -38 l-54 -15 -29 34 c-72 81 -202 46 -229 -62 -6 -24 -18 -46
-28 -48 -9 -3 -74 -21 -145 -41 l-128 -35 -28 30 c-68 73 -168 63 -220 -22
-64 -106 48 -243 163 -199 52 20 81 60 91 126 3 19 24 26 234 81 l64 17 21
-26 c73 -88 210 -58 238 52 12 47 14 50 58 61 25 7 90 25 143 40 l97 28 41
-39 c35 -34 47 -39 86 -39 73 0 128 41 140 106 21 110 -84 199 -186 158z"/>
<path d="M2723 1780 c-38 -23 -60 -55 -69 -97 -7 -37 -14 -40 -179 -83 l-120
-32 -20 25 c-64 78 -173 70 -225 -16 -11 -18 -20 -42 -20 -55 0 -27 -9 -31
-174 -73 l-124 -32 -35 35 c-58 59 -141 56 -196 -7 -26 -30 -37 -61 -33 -96 1
-3 -65 -24 -146 -46 l-147 -41 -23 25 c-54 59 -124 70 -187 29 -79 -52 -79
-173 0 -230 38 -26 114 -25 152 2 32 23 63 77 63 110 0 16 21 25 147 59 l147
39 29 -32 c41 -48 109 -59 169 -28 32 17 68 73 68 107 0 25 8 31 57 42 10 2
45 12 78 21 33 9 67 18 75 19 8 2 30 9 49 14 31 10 37 8 63 -20 33 -35 66 -49
111 -49 63 0 124 59 129 125 2 22 10 28 58 41 30 8 75 21 100 29 25 8 67 19
93 25 47 10 50 9 70 -16 60 -77 182 -63 226 25 35 70 10 148 -60 183 -44 23
-86 23 -126 -2z"/>
<path d="M2520 1421 c-39 -21 -70 -66 -73 -108 -2 -26 -7 -29 -127 -61 -69
-19 -135 -36 -147 -39 -17 -4 -31 3 -51 25 -88 94 -232 37 -241 -94 -1 -10
-37 -22 -225 -72 l-69 -18 -31 34 c-88 95 -246 23 -233 -105 8 -77 60 -124
139 -126 61 -1 126 59 131 121 1 17 4 32 5 32 2 0 56 14 120 31 186 50 171 50
208 9 30 -33 37 -35 93 -35 52 0 63 4 90 29 31 30 57 88 46 105 -3 6 14 15 37
21 24 7 92 25 151 41 l109 29 28 -30 c50 -54 108 -64 170 -29 101 57 87 207
-23 248 -40 16 -67 14 -107 -8z"/>
<path d="M2324 1066 c-39 -17 -81 -72 -86 -111 -3 -32 11 -27 -210 -88 l-88
-24 -15 23 c-29 45 -69 60 -142 55 -12 0 -37 -14 -56 -30 -124 -109 8 -301
155 -225 35 18 68 69 68 106 0 24 6 29 43 38 23 7 89 25 146 41 l105 28 33
-34 c109 -113 291 12 222 153 -32 65 -112 96 -175 68z"/>
</g>
</svg>
