<svg width="187" height="48" viewBox="0 0 187 48" fill="none" xmlns="http://www.w3.org/2000/svg">
<path d="M29.1711 37.6081C29.4905 37.6081 29.8144 37.6906 30.1109 37.8641C31.0115 38.3906 31.3201 39.5573 30.8 40.4697C30.28 41.3818 29.1284 41.6945 28.2278 41.1676C27.8758 40.9617 27.6156 40.6572 27.4586 40.3092L23.3257 41.431C23.3614 41.8121 23.2866 42.2074 23.0832 42.564C22.563 43.4761 21.4116 43.7888 20.511 43.2621C19.6104 42.7353 19.3017 41.569 19.8216 40.6567C20.3417 39.7443 21.4933 39.4318 22.394 39.9584C22.7462 40.1645 23.0063 40.4687 23.1632 40.817L27.2961 39.6953C27.2602 39.3143 27.3352 38.919 27.5384 38.5622C27.8873 37.9502 28.5203 37.6081 29.1711 37.6081ZM31.9956 32.6526C32.315 32.6526 32.6389 32.7351 32.9353 32.9084C33.8359 33.4351 34.1446 34.6017 33.6245 35.5141C33.1045 36.4262 31.9529 36.7389 31.0525 36.2123C30.7001 36.0064 30.44 35.7019 30.2831 35.3538L26.1504 36.4754C26.1861 36.8565 26.1109 37.2517 25.9078 37.6085C25.3877 38.5209 24.2359 38.8333 23.3353 38.3068C22.9835 38.1007 22.7231 37.7964 22.5662 37.4482L18.4334 38.5698C18.4691 38.9509 18.3943 39.3462 18.191 39.703C17.6711 40.6154 16.5193 40.928 15.6185 40.4011C14.7181 39.8744 14.4094 38.7079 14.9293 37.7955C15.4493 36.8831 16.601 36.5707 17.5016 37.0974C17.854 37.3033 18.114 37.608 18.2709 37.956L22.4038 36.8343C22.3681 36.4533 22.4427 36.0578 22.6463 35.701C23.1663 34.7888 24.318 34.4761 25.2185 35.0029C25.5707 35.2088 25.8308 35.5133 25.9877 35.8615L30.1206 34.7397C30.0849 34.3588 30.1597 33.9635 30.3631 33.6067C30.7118 32.9946 31.3448 32.6524 31.9956 32.6526ZM34.8201 27.6971C35.1395 27.6971 35.4633 27.7795 35.7598 27.953C36.6606 28.4797 36.9691 29.6462 36.4492 30.5584C35.9292 31.4707 34.7775 31.7834 33.8769 31.2567C33.5248 31.0506 33.2645 30.7463 33.1076 30.398L28.9747 31.5197C29.0108 31.9008 28.9356 32.2963 28.7325 32.6529C28.2124 33.5654 27.0606 33.8777 26.16 33.3511C25.8078 33.1452 25.5478 32.8407 25.3908 32.4926L21.2579 33.6144C21.2938 33.9953 21.219 34.3907 21.0154 34.7475C20.4954 35.6597 19.344 35.9724 18.4432 35.4456C18.091 35.2397 17.831 34.9354 17.674 34.587L13.5411 35.7087C13.577 36.0897 13.502 36.485 13.2986 36.8418C12.7788 37.7542 11.6272 38.0668 10.7264 37.5401C9.82562 37.0134 9.51724 35.8467 10.0372 34.9343C10.5571 34.0221 11.7087 33.7095 12.6093 34.2364C12.9617 34.4423 13.2219 34.7468 13.3786 35.095L17.5115 33.9732C17.4756 33.5921 17.5507 33.1966 17.754 32.84C18.274 31.9279 19.4257 31.6152 20.3262 32.1419C20.6784 32.3479 20.9385 32.6523 21.0956 33.0005L25.2285 31.8787C25.1924 31.4978 25.2674 31.1022 25.4708 30.7456C25.9908 29.8332 27.1424 29.5209 28.0432 30.0475C28.3952 30.2534 28.6554 30.5577 28.8124 30.9058L32.9453 29.784C32.9092 29.4033 32.9844 29.0077 33.1878 28.6511C33.5365 28.0393 34.1693 27.6971 34.8201 27.6971ZM37.6448 22.7417C37.9642 22.7417 38.288 22.8242 38.5845 22.9977C39.4853 23.5242 39.7938 24.6906 39.2737 25.6031C38.7538 26.5153 37.6021 26.8278 36.7014 26.3012C36.3493 26.0953 36.0892 25.7908 35.9321 25.4426L31.7993 26.5643C31.8351 26.9455 31.7603 27.3408 31.5567 27.6976C31.0369 28.6098 29.8853 28.9222 28.9846 28.3957C28.6325 28.1896 28.3724 27.8853 28.2153 27.5371L24.0824 28.6589C24.1183 29.0398 24.0433 29.4351 23.8401 29.7917C23.3201 30.7042 22.1685 31.0167 21.2679 30.49C20.9155 30.284 20.6555 29.9796 20.4986 29.6316L16.3658 30.7534C16.4015 31.1341 16.3267 31.5297 16.1232 31.8864C15.6031 32.7987 14.4517 33.1112 13.5509 32.5844C13.1989 32.3786 12.9387 32.0742 12.7816 31.7261L8.64879 32.8477C8.6845 33.2288 8.60969 33.624 8.40642 33.9808C7.8863 34.893 6.73469 35.2057 5.83409 34.6789C4.93349 34.1522 4.62477 32.9855 5.14489 32.0735C5.66483 31.1612 6.81661 30.8485 7.71705 31.3754C8.06926 31.5813 8.32941 31.8856 8.48631 32.2339L12.6193 31.112C12.5835 30.7311 12.6584 30.3357 12.8615 29.979C13.3817 29.0667 14.5334 28.7542 15.434 29.2808C15.7861 29.4867 16.0462 29.7912 16.2033 30.1394L20.3362 29.0177C20.3003 28.6366 20.3753 28.2412 20.5785 27.8844C21.0986 26.9724 22.2501 26.6597 23.1509 27.1863C23.5031 27.3922 23.7631 27.6967 23.9201 28.0449L28.053 26.9232C28.0169 26.5421 28.0921 26.1469 28.2953 25.7901C28.8153 24.8777 29.9671 24.5652 30.8678 25.0918C31.2199 25.2979 31.48 25.6022 31.6368 25.9504L35.77 24.8287C35.7339 24.4477 35.8089 24.0524 36.0122 23.6956C36.3612 23.0837 36.994 22.7417 37.6448 22.7417ZM17.3187 24.0693C17.6382 24.0695 17.962 24.1518 18.2586 24.3253C19.159 24.852 19.4677 26.0186 18.9479 26.9309C18.4278 27.8431 17.276 28.1557 16.3754 27.629C16.0236 27.4231 15.7632 27.1186 15.6062 26.7704L11.4735 27.8922C11.5092 28.2733 11.4342 28.6686 11.2309 29.0252C10.7108 29.9375 9.55938 30.25 8.65861 29.7233C8.30656 29.5174 8.04641 29.213 7.88935 28.8649L3.75649 29.9867C3.79254 30.3676 3.71739 30.7631 3.51412 31.1197C2.99417 32.032 1.84239 32.3445 0.941619 31.8178C0.0411848 31.2912 -0.267366 30.1245 0.252584 29.2124C0.772364 28.3 1.92414 27.9875 2.82491 28.5142C3.17713 28.7202 3.43711 29.0244 3.59418 29.3727L7.72703 28.251C7.69115 27.87 7.76613 27.4747 7.9694 27.1179C8.48935 26.2055 9.64096 25.893 10.5416 26.4198C10.894 26.6257 11.1539 26.93 11.3108 27.2782L15.4439 26.1565C15.408 25.7755 15.4828 25.3802 15.6862 25.0234C16.0351 24.4115 16.6679 24.0693 17.3187 24.0693ZM12.4266 21.2083C12.7459 21.2083 13.0697 21.2908 13.3663 21.4641C14.267 21.9909 14.5754 23.1574 14.0555 24.0699C13.5355 24.9819 12.3837 25.2946 11.4833 24.768C11.1311 24.5621 10.8709 24.2576 10.7139 23.9094L6.58101 25.0311C6.61706 25.4121 6.54208 25.8074 6.33864 26.1642C5.81869 27.0766 4.66708 27.389 3.76631 26.8625C2.8657 26.3356 2.55715 25.169 3.0771 24.2567C3.59705 23.3445 4.74883 23.0319 5.64943 23.5586C6.00165 23.7645 6.26163 24.069 6.41853 24.4172L10.5516 23.2955C10.5157 22.9143 10.5908 22.5192 10.7941 22.1624C11.1429 21.5505 11.7758 21.2083 12.4266 21.2083ZM40.4693 17.7861C40.7887 17.7861 41.1127 17.8686 41.4092 18.0419C42.3096 18.5686 42.6183 19.7351 42.0984 20.6475C41.5784 21.5598 40.4267 21.8723 39.5261 21.3456C39.174 21.1397 38.9139 20.8353 38.7568 20.4871L34.6239 21.609C34.6597 21.9899 34.5848 22.3851 34.3814 22.7419C33.8613 23.6543 32.7098 23.9668 31.8092 23.4401C31.457 23.2341 31.1969 22.9298 31.04 22.5816L26.9071 23.7031C26.943 24.0843 26.8679 24.4796 26.6646 24.8364C26.1446 25.7486 24.9929 26.0613 24.0922 25.5345C23.1916 25.008 22.8831 23.8413 23.4032 22.9291C23.9232 22.0167 25.0748 21.7041 25.9754 22.2308C26.3274 22.4369 26.5877 22.7412 26.7446 23.0892L30.8775 21.9676C30.8416 21.5867 30.9168 21.1912 31.1199 20.8346C31.64 19.9223 32.7916 19.6096 33.6922 20.1365C34.0444 20.3422 34.3046 20.6468 34.4615 20.9949L38.5943 19.8733C38.5584 19.4922 38.6334 19.0968 38.8367 18.7401C39.1855 18.1282 39.8184 17.786 40.4693 17.7861ZM43.2938 12.8306C43.6132 12.8306 43.9372 12.9131 44.2335 13.0864C45.1341 13.6132 45.4429 14.7796 44.9229 15.692C44.4028 16.6042 43.2512 16.9168 42.3506 16.3901C41.9984 16.1842 41.7382 15.8797 41.5813 15.5315L37.4486 16.6533C37.4843 17.0342 37.4092 17.4296 37.2061 17.7865C36.686 18.6987 35.5342 19.0113 34.6338 18.4846C34.2817 18.2785 34.0214 17.9742 33.8645 17.626L29.7316 18.7478C29.7675 19.1287 29.6925 19.5242 29.4893 19.8808C28.9691 20.7931 27.8175 21.1058 26.9168 20.5789C26.0163 20.0523 25.7076 18.8856 26.2276 17.9735C26.7475 17.0613 27.8993 16.7486 28.7999 17.2753C29.1521 17.4813 29.4121 17.7856 29.5692 18.1338L33.702 17.0121C33.6663 16.6311 33.7411 16.2358 33.9446 15.879C34.4647 14.9668 35.6161 14.6542 36.5167 15.1809C36.8688 15.3868 37.1289 15.6913 37.286 16.0393L41.4188 14.9176C41.3831 14.5366 41.4581 14.1413 41.6614 13.7845C42.01 13.1726 42.6431 12.8306 43.2938 12.8306ZM46.1184 7.87507C46.4377 7.87507 46.7615 7.95753 47.0581 8.13103C47.9588 8.65753 48.2674 9.8242 47.7474 10.7364C47.2273 11.6489 46.0759 11.9612 45.1751 11.4346C44.8229 11.2287 44.5627 10.9243 44.4058 10.5761L40.273 11.6979C40.309 12.0788 40.2339 12.4742 40.0306 12.831C39.5107 13.743 38.3589 14.0557 37.4583 13.5291C37.1061 13.3232 36.8459 13.0187 36.689 12.6705L32.5562 13.7922C32.592 14.1732 32.5171 14.5685 32.3138 14.9253C31.7937 15.8377 30.6421 16.1501 29.7415 15.6236C28.8407 15.0967 28.5323 13.9302 29.0523 13.0178C29.5722 12.1056 30.724 11.793 31.6244 12.3199C31.9766 12.5258 32.2368 12.8301 32.3938 13.1783L36.5267 12.0565C36.4908 11.6756 36.5656 11.2801 36.7692 10.9237C37.2889 10.0112 38.4406 9.6987 39.3414 10.2254C39.6936 10.4314 39.9536 10.7358 40.1107 11.084L44.2435 9.96221C44.2076 9.58126 44.2825 9.18575 44.4861 8.82897C44.8347 8.2171 45.4676 7.87507 46.1184 7.87507ZM41.2262 5.01404C41.5456 5.01404 41.8694 5.0965 42.1659 5.26983C43.0667 5.7965 43.3752 6.96299 42.8551 7.87524C42.3353 8.78766 41.1836 9.1002 40.2828 8.57352C39.9307 8.36745 39.6706 8.06314 39.5135 7.71494L35.3807 8.83669C35.4167 9.21763 35.3416 9.61315 35.1383 9.96992C34.6184 10.8822 33.4668 11.1947 32.5661 10.6679C31.6654 10.1414 31.3568 8.9747 31.8768 8.06245C32.3969 7.15004 33.5483 6.83767 34.4491 7.36417C34.8012 7.57024 35.0613 7.87455 35.2184 8.22275L39.3512 7.10101C39.3152 6.72006 39.3903 6.32472 39.5936 5.96794C39.9424 5.35607 40.5753 5.01387 41.2262 5.01404Z" fill="#030712"/>
<path d="M61.422 16.04H64.014V26.552H69.45V29H61.422V16.04ZM73.7464 29V16.04H76.3384V29H73.7464ZM81.518 29V16.04H89.996V18.488H84.11V21.26H88.88V23.708H84.11V29H81.518ZM102.687 18.452H99.3034V29H96.7114V18.452H93.3274V16.04H102.687V18.452Z" fill="#4B5563"/>
<path d="M113.511 26.084H109.317L108.453 29H105.771L109.947 16.04H112.971L117.147 29H114.357L113.511 26.084ZM112.809 23.636L111.441 18.884L110.037 23.636H112.809ZM130.756 29H127.966L125.878 24.194H123.79V29H121.198V16.04H127.804C128.56 16.04 129.172 16.28 129.64 16.76C130.12 17.228 130.36 17.84 130.36 18.596V21.638C130.36 22.25 130.198 22.772 129.874 23.204C129.562 23.636 129.136 23.93 128.596 24.086L130.756 29ZM127.768 21.17V19.1C127.768 18.692 127.564 18.488 127.156 18.488H123.79V21.782H127.156C127.564 21.782 127.768 21.578 127.768 21.17ZM141.599 29.072H137.495C136.739 29.072 136.121 28.838 135.641 28.37C135.173 27.89 134.939 27.272 134.939 26.516V18.524C134.939 17.768 135.173 17.156 135.641 16.688C136.121 16.208 136.739 15.968 137.495 15.968H141.599C142.355 15.968 142.967 16.208 143.435 16.688C143.915 17.156 144.155 17.768 144.155 18.524V20.612H141.563V19.028C141.563 18.62 141.359 18.416 140.951 18.416H138.143C137.735 18.416 137.531 18.62 137.531 19.028V26.012C137.531 26.42 137.735 26.624 138.143 26.624H140.951C141.359 26.624 141.563 26.42 141.563 26.012V24.428H144.155V26.516C144.155 27.272 143.915 27.89 143.435 28.37C142.967 28.838 142.355 29.072 141.599 29.072ZM155.265 26.084H151.071L150.207 29H147.525L151.701 16.04H154.725L158.901 29H156.111L155.265 26.084ZM154.563 23.636L153.195 18.884L151.791 23.636H154.563ZM162.953 16.04H169.703C170.459 16.04 171.071 16.28 171.539 16.76C172.019 17.228 172.259 17.84 172.259 18.596V26.444C172.259 27.2 172.019 27.818 171.539 28.298C171.071 28.766 170.459 29 169.703 29H162.953V16.04ZM165.545 26.552H169.055C169.463 26.552 169.667 26.348 169.667 25.94V19.1C169.667 18.692 169.463 18.488 169.055 18.488H165.545V26.552ZM177.14 16.04H185.618V18.488H179.732V21.152H184.502V23.6H179.732V26.552H185.618V29H177.14V16.04Z" fill="black"/>
</svg>
